<svg id="Layer_2" data-name="Layer 2" xmlns="http://www.w3.org/2000/svg" width="995.4" height="1873.9" viewBox="0 0 995.4 1873.9">
  <title>eggs_traced</title>
  <path d="M139.8,34.3c60.6-1,97.2,68.7,96.5,120.7s-22.9,120-96.5,122S37.7,205.4,37.3,163.2,76,35.4,139.8,34.3Z" transform="translate(-36.8 -33.8)" style="fill: none;stroke: #000;stroke-miterlimit: 10"/>
  <path d="M399,34.3c31.3,0,73.4,51.4,83,138S425,293.7,399,293s-100.2-22.6-90.2-125C317.7,78.3,376.3,34.3,399,34.3Z" transform="translate(-36.8 -33.8)" style="fill: none;stroke: #000;stroke-miterlimit: 10"/>
  <path d="M648.5,45c36.5,1.6,83.8,75.3,81.2,140s-30,113.4-86,115.7S559,249,556.3,191.7,596,42.8,648.5,45Z" transform="translate(-36.8 -33.8)" style="fill: none;stroke: #000;stroke-miterlimit: 10"/>
  <path d="M903.7,47.7c55.9,2.2,96.6,74.6,94,134.6s-38.7,118.4-94,118.4-88.5-38.4-98.9-107S853.1,45.7,903.7,47.7Z" transform="translate(-36.8 -33.8)" style="fill: none;stroke: #000;stroke-miterlimit: 10"/>
  <path d="M135.3,321.7c49.7,0,88.4,72,90.1,131.3s-16,137.3-85.6,139.3S47,514.9,45,469.6,73.5,321.7,135.3,321.7Z" transform="translate(-36.8 -33.8)" style="fill: none;stroke: #000;stroke-miterlimit: 10"/>
  <path d="M392.6,331.7c58.4-1.3,83,87,90.4,132.2s-5.3,133.8-84,134.4-92.2-76-91.1-122.6S332.8,333,392.6,331.7Z" transform="translate(-36.8 -33.8)" style="fill: none;stroke: #000;stroke-miterlimit: 10"/>
  <path d="M648.5,331.7c45.8.5,95.8,60.7,96.5,125.3s-28.7,132.7-90.7,135.4S552.3,534.2,553,469.6,594.7,331,648.5,331.7Z" transform="translate(-36.8 -33.8)" style="fill: none;stroke: #000;stroke-miterlimit: 10"/>
  <path d="M907.7,331.6c62.7-.5,92,82.1,94,125.4S994.3,589.7,917,595.7,814.3,500.3,815,477,828.3,332.3,907.7,331.6Z" transform="translate(-36.8 -33.8)" style="fill: none;stroke: #000;stroke-miterlimit: 10"/>
  <path d="M143,644.3c68.6-3.9,96.7,101.4,98,146S226,920,146.8,925.2,37,826.9,52.3,773,84.3,647.7,143,644.3Z" transform="translate(-36.8 -33.8)" style="fill: none;stroke: #000;stroke-miterlimit: 10"/>
  <path d="M399,632c72.6,3.4,96,103,95.3,149S473,903.6,399,908.3c-62,4-103.3-86-91.2-151.3C316.6,709.8,349,629.6,399,632Z" transform="translate(-36.8 -33.8)" style="fill: none;stroke: #000;stroke-miterlimit: 10"/>
  <path d="M651.7,644.3c66-1,107.3,83.4,111.6,133.4,4,45.1-12.3,133.6-96.3,139.8S551,843.6,552.3,773,609,645,651.7,644.3Z" transform="translate(-36.8 -33.8)" style="fill: none;stroke: #000;stroke-miterlimit: 10"/>
  <path d="M907.7,648.3c61.5-.6,97.3,70.1,100,132.7S984,909,912.2,911.7,811,829.5,816.3,779.9,843,649,907.7,648.3Z" transform="translate(-36.8 -33.8)" style="fill: none;stroke: #000;stroke-miterlimit: 10"/>
  <path d="M144.8,960c62.9.7,99.5,88.3,100.2,155.7s-39.7,130.6-100.2,129.6-104.1-77.6-96.3-159.6S114.6,959.7,144.8,960Z" transform="translate(-36.8 -33.8)" style="fill: none;stroke: #000;stroke-miterlimit: 10"/>
  <path d="M400,958.7c57.7-2.6,101.7,107,103,144s-17.3,126.3-103,129-103.6-104-101-129S333.7,961.7,400,958.7Z" transform="translate(-36.8 -33.8)" style="fill: none;stroke: #000;stroke-miterlimit: 10"/>
  <path d="M661,948.7c42.6-2.7,98,83,98,166.3s-67.4,123.1-98,120.9-79.3-34.2-90-72.9-10.7-83.3,10-130.7S622.9,951.1,661,948.7Z" transform="translate(-36.8 -33.8)" style="fill: none;stroke: #000;stroke-miterlimit: 10"/>
  <path d="M914.9,945.1c67.5,1.3,96.8,88.9,101.8,150.1s-37.2,139.2-98.4,136.5-114-49-107.3-136.5S868.2,944.2,914.9,945.1Z" transform="translate(-36.8 -33.8)" style="fill: none;stroke: #000;stroke-miterlimit: 10"/>
  <path d="M141.7,1265.7c62-.9,98.6,120,99.3,167.3s-10.7,133.7-102,143.4c-62,6.6-112-74.1-99.3-152.9C48.9,1365.8,93.7,1266.3,141.7,1265.7Z" transform="translate(-36.8 -33.8)" style="fill: none;stroke: #000;stroke-miterlimit: 10"/>
  <path d="M406.9,1261c65.4.9,104.8,80,104.8,167.3s-51.6,142-104.2,143.4S301,1514.7,303,1419.9,360.1,1260.3,406.9,1261Z" transform="translate(-36.8 -33.8)" style="fill: none;stroke: #000;stroke-miterlimit: 10"/>
  <path d="M668.3,1265.7c53.4,0,110,94,108,176S719.6,1569,672,1567.7,560,1521,563.7,1433C567.3,1349,628.3,1265.7,668.3,1265.7Z" transform="translate(-36.8 -33.8)" style="fill: none;stroke: #000;stroke-miterlimit: 10"/>
  <path d="M918.3,1261c50,0,104.8,68.7,106.8,166s-63.8,142.7-100.6,144.7-110.8-24.2-110.8-150.5C813.6,1317.7,877.7,1261,918.3,1261Z" transform="translate(-36.8 -33.8)" style="fill: none;stroke: #000;stroke-miterlimit: 10"/>
  <path d="M146.8,1611.4c64.8,1.2,102.5,88.9,101.1,159.6S202,1901.7,146.8,1901.7c-59.1,0-114.7-64.7-103.2-152C57.3,1645.5,115.6,1610.7,146.8,1611.4Z" transform="translate(-36.8 -33.8)" style="fill: none;stroke: #000;stroke-miterlimit: 10"/>
  <path d="M411.1,1606c49.9,1.5,96.1,105,94.3,163s-19.9,120-89.1,136.7C357,1920,288.5,1831.3,312,1744.3S367.8,1604.7,411.1,1606Z" transform="translate(-36.8 -33.8)" style="fill: none;stroke: #000;stroke-miterlimit: 10"/>
  <path d="M659.5,1609.5c75.9-4.8,116,86,119.5,140S767.5,1883,676.5,1897,551,1796.5,560,1739.5,604.5,1613,659.5,1609.5Z" transform="translate(-36.8 -33.8)" style="fill: none;stroke: #000;stroke-miterlimit: 10"/>
  <path d="M916.5,1609.3c69-1.5,117,90.2,115.2,158.2S998,1902.5,929,1904s-121.7-63-113-150.3C825.2,1660.9,880.5,1610.1,916.5,1609.3Z" transform="translate(-36.8 -33.8)" style="fill: none;stroke: #000;stroke-miterlimit: 10"/>
</svg>
