ply
format ascii 1.0
comment unit regular icosahedron from https://commons.wikimedia.org/wiki/File:Regular_icosahedron.stl
comment 0.85065080835203993218 = sqrt((5+sqrt(5))/10)
comment 0.52573111211913360603 = sqrt((5-sqrt(5))/10)
element vertex 12
property float x
property float y
property float z
element face 20
property list uchar int vertex_index
end_header
0.0 0.8506508083520399 0.5257311121191336 
-0.8506508083520399 0.5257311121191336 0.0 
-0.5257311121191336 0.0 0.8506508083520399 
0.0 0.8506508083520399 -0.5257311121191336 
-0.5257311121191336 0.0 -0.8506508083520399 
0.0 -0.8506508083520399 -0.5257311121191336 
0.8506508083520399 -0.5257311121191336 0.0 
0.0 -0.8506508083520399 0.5257311121191336 
0.5257311121191336 0.0 0.8506508083520399 
-0.8506508083520399 -0.5257311121191336 0.0 
0.8506508083520399 0.5257311121191336 0.0 
0.5257311121191336 0.0 -0.8506508083520399 
3 0 1 2
3 3 1 0
3 3 4 1
3 5 6 7
3 8 0 2
3 8 2 7
3 8 7 6
3 9 1 4
3 9 5 7
3 9 2 1
3 9 7 2
3 9 4 5
3 10 3 0
3 10 0 8
3 10 8 6
3 11 4 3
3 11 3 10
3 11 6 5
3 11 5 4
3 11 10 6
