<?xml version="1.0" encoding="UTF-8"?><svg version="1.1" width="1400" height="1200" viewBox="0 0 2800 2400" xml:space="preserve" xmlns="http://www.w3.org/2000/svg" xmlns:xlink="http://www.w3.org/1999/xlink"><defs><path id="u" d="M0 2048h2048V0H0Z"/></defs><defs><clipPath id="ao"><use xlink:href="#u"/></clipPath><clipPath id="an"><use xlink:href="#u"/></clipPath><clipPath id="am"><use xlink:href="#u"/></clipPath><clipPath id="al"><use xlink:href="#u"/></clipPath><clipPath id="ak"><path d="m1104.5 1156.6h141v-46.2h-141z"/></clipPath><clipPath id="aj"><path d="m1290.7 1183.7h112v-55.2h-112z"/></clipPath><clipPath id="ai"><path d="M1445 1222.9h54.6v-45H1445z"/></clipPath><clipPath id="ah"><path d="m1549.2 1311.8h98.9v-73.7h-99z"/></clipPath><clipPath id="ag"><path d="M1551 1196h112.5v-25.2H1551z"/></clipPath><clipPath id="af"><path d="M909.4 1096.6h221.7v-36H909.4Z"/></clipPath><clipPath id="ae"><path d="M1170 1039h93.1V917.6H1170z"/></clipPath><clipPath id="ad"><path d="M1270.8 866.4h35.6V707.8h-35.6z"/></clipPath><clipPath id="ac"><path d="M1212 666h74.5v-89H1212Z"/></clipPath><clipPath id="ab"><path d="M855.3 1058.8h188.2v-34.7H855.3Z"/></clipPath><clipPath id="aa"><path d="M1061.4 997.5h26.7V876.3h-26.7z"/></clipPath><clipPath id="z"><path d="M1024.5 830h58V679h-58z"/></clipPath><clipPath id="y"><path d="M895 641.8h111.7v-79.6H895Z"/></clipPath><clipPath id="x"><path d="M827.6 1029.5h56V995h-56z"/></clipPath><clipPath id="w"><path d="M905.2 984.7h38.3V945h-38.3z"/></clipPath><clipPath id="v"><use xlink:href="#u"/></clipPath></defs><g transform="matrix(1.3333 0 0 -1.3333 0 2730.7) matrix(1.2 0 0 1.2 -140.4 -138.6)" clip-path="url(#ao)"><path transform="translate(1153 1266.9)" d="M0 0c-4.2 34.4-17.4 73-44.2 109l-19-3.2-8.4-15.4A10 10 0 0 0-69 87s40.5-63-43.5-268.5c-36.6-89.7-79.4-147-117-183.4 1.7-9.3-10.7-43.8-8.2-53.2 7.6-26.3 29.3-27 38.2-52.3a373 373 0 0 1 27 34C-81-306 13-104.5 0 0" fill="#2e3192"/></g><g transform="matrix(1.3333 0 0 -1.3333 0 2730.7) matrix(1.2 0 0 1.2 -140.4 -138.6)" clip-path="url(#an)"><path transform="translate(1091.2 1139.2)" d="M0 0s147.5 29.4 200.7 16.7c16.6-4 19.3-50.2-16.5-60C148.5-53-80.8-93-78-62-75.2-31 0 0 0 0" fill="#f65d03"/><path transform="translate(1075.5 1102.5)" d="M0 0s-7.5 16 25 17 133.5 24 147.5 19.5 7-8 10.5-17.5-9.5-13-31.5-12.5C107 7.5-11-31 0 0" fill="#ff7319"/><path transform="translate(1284.4 1130.6)" d="m0 0s5.2 33.7 58.9 27.7 147.2-15.6 119.5-37.6-35-49.6-114.2-35-64.2 44.9-64.2 44.9" fill="#f65d03"/><path transform="translate(1317.7 1127.4)" d="M0 0s9.5 13.2 45.8 8c36.3-5.3 87-4 60-15.6S72.7-26 43.9-18C15.2-10-15.9-11.5 0 0" fill="#ff7319"/><path transform="translate(1469.2 1125.2)" d="M0 0s24-10.7 47.3-40.7c23.4-30 32.7-42 7.4-59.3-25.4-17.3-42-14.7-73.4 22C-50-41.3-46.7-16.7 0 0" fill="#f65d03"/><path transform="translate(1468.5 1096.5)" d="M0 0c-10.7-2.5-22-12.5-6.5-26.5s18-40.5 33-28.5 20.5 14 5 27S21.5 5 0 0" fill="#ff7319"/><path transform="translate(1518.7 1042)" d="M0 0s36.9 13.1 72.1-34c35.3-47.2 41.1-90.5 38.6-100.6-2.4-10-16.5 13-25.2 24.2C76.7-99.2-42-16.8 0 0" fill="#f65d03"/><path transform="translate(1541.7 1022)" d="M0 0s15-2.3 28.7-16.3c13.6-14 37-54 37-54s-27.5 25.8-36.1 33C12.9-23.3-16.4-8 0 0" fill="#ff7319"/><path transform="translate(1502.3 1019.8)" d="m0 0s-18-10.3-3.9-39.8 38-57.4 76.5-78.4c38.4-20.8-10.6 20-17.8 35.7-7.2 15.8-14.8 99-54.8 82.5" fill="#f65d03"/><path transform="translate(1515.3 1003.7)" d="M0 0c-4.7-1.3-13-4 0-25.3C13-46.7 22.3-63 23.7-61c1.3 2-8 23.6-8.5 34.6C14.6-15.5 0 0 0 0" fill="#ff7319"/><path transform="translate(1105.7 1113.4)" d="M0 0c9 25.6 225.4 64.8 236.7 50.5C248 36.2 241.2.8 229.2-3.8 217.2-8.3-8.3-73-15.8-52-23.4-31 0 0 0 0" fill="#f65d03"/><path transform="translate(1117.6 1081.1)" d="M0 0s5.5 24.6 26 29c20.4 4.4 150.2 42.8 162.8 38.6 12.5-4.3 1.7-14.5 7.4-22.4 5.6-7.9-5.4-4.6-63.2-16.7C75.2 16.5 13.6-7.7 0 0" fill="#ff7319"/><path transform="translate(1340.1 1146.6)" d="M0 0s16.6 33.2 46-38.4c29.4-71.7 57.3-140.3 18-145.5C25-189.2 26.5-95 7.6-55.8-11.3-16.6 0 0 0 0" fill="#f65d03"/><path transform="translate(1359 1106.1)" d="M0 0c-4.2 11.1-11.4 27.2 1 20.5 12-6.4 8.8-26.8 18.8-45 10-18.4 28.3-75.4 27-85.4-1.5-12-12.5-18.1-17.2 8C24.8-75.7 0 0 0 0" fill="#ff7319"/><path transform="translate(1371 719.2)" d="M0 0s39.2 74.6 49 156c9.8 81.5 9 96.5-9 97.3-18.1.7-22.7-2.3-20.4-89A622.6 622.6 0 0 0 0 0" fill="#f65d03"/><path transform="translate(1400.5 847.5)" d="M0 0s22.5 95 13.5 100.5S-1 109 2 82.5 0 0 0 0" fill="#ff7319"/><path transform="translate(961.2 1104.8)" d="M0 0c2.3 16.5 202.9 79.6 220.9 60.9 18-18.8 11.3-57.1-21-66.2-32.4-9-185.6-58.6-203.7-39C-21.8-24.8 0 0 0 0" fill="#f65d03"/><path transform="translate(992 1083)" d="M0 0c2.5 11.9-17 12 13.5 25s127 39.5 135.5 35-2-6 3.5-17.5-27-17-77-33S-3-14 0 0" fill="#ff7319"/><path transform="translate(1188.9 1146.1)" d="m0 0s25.5 21 83.4-26.3 124.7-75.1 107.4-93.2c-17.2-18-34.5-36.8-112 12-77.2 49-128.3 85.8-78.8 107.5" fill="#f65d03"/><path transform="translate(1196.8 1120.4)" d="M0 0c-.2 8.9 14.4 14.6 36-2 21.5-16.7 67.2-43.6 82.8-55 15.7-11.6 50.7-28.6 34.5-37.1-16.3-8.5-47.6 15.9-80.4 39.4C40.1-31.2.2-10.5 0 0" fill="#ff7319"/><path transform="translate(1374.5 1023)" d="M0 0s38.3-24 65.4-68.4c27-44.3 39-57 12-63.8-27-6.8-30.8 6-65.4 57C-22.5-24-38.3-9.7 0 0" fill="#f65d03"/><path transform="translate(1374.2 992)" d="M0 0c-2.4 8.9 7.5 11.3 20.1-2.6 12.7-14 40-55.3 48.4-62.4 8.3-7.1 4.7-26.3-8.1-19.9-12.9 6.4-18.7 37.2-36.3 49C6.6-24.3 0 0 0 0" fill="#ff7319"/><path transform="translate(1437.6 702.8)" d="M0 0s29.3 69.9 32.3 128.5c3 58.6.8 70.6-17.3 66.1-18-4.5-22.5 1.5-15.8-37.6C6 118 10.5 66.1 0 0" fill="#f65d03"/><path transform="translate(1453.8 795.4)" d="M0 0s15.6 81.2 5 84.8c-10.7 3.5-17.1 1.8-12.5-11.5C-3 59.9 1 23.5 0 0" fill="#ff7319"/><path transform="translate(918.5 1149.5)" d="M0 0s31 17.5 117 19 139.5 4.5 133-24.5S245-61 181.5-51-15-83-18-60-13-9 0 0" fill="#f65d03"/><path transform="translate(931 1110.3)" d="M0 0s-9.3 16.7 11.3 21.3C32 26 122.7 28.7 145.3 36c22.7 7.3 60.4 9.3 56.7-4-5-18-9.3-30-57.3-22S22.7-11.3 0 0" fill="#ff7319"/><path transform="translate(1166 1145)" d="M0 0s6.5 20 30.5-3S169-174 165-199s-15-44-34-32c-28.3 17.9-76.5 105.5-94 132.5C20.4-73-45-33 0 0" fill="#f65d03"/><path transform="translate(1308.3 948.7)" d="m0 0s-5-14-27 14.3c-22 28.2-65 102.5-78.6 114.4-13.6 12-24.7 45.4-11 35.8 26-18.2 68.7-87.9 78.4-99.2s42.7-55.3 38.2-65.3" fill="#ff7319"/><path transform="translate(1233.8 741.3)" d="M0 0c-7.2 2.3-6.7 29.3 6 60s38 107.3 51.3 112c13.4 4.7 32 6 30-12s-8.6-57.3-26-92C44 33.3 27.3-8.7 0 0" fill="#f65d03"/><path transform="translate(1289.7 885)" d="M0 0c3 8 22.6 13.3 14.7-10-8-23.3-44-112-53.4-104.7C-48-107.3-12.3-32 0 0" fill="#ff7319"/><path transform="translate(1103.3 632)" d="m0 0s38 41.3 54 54 62.7 63.3 70.7 66 26.6 3.3 12.6-24.7-32-52-62.6-69.3c-30.7-17.3-40.7-20.7-74.7-26" fill="#f65d03"/><path transform="translate(1151.4 659.2)" d="M0 0s60.4 31.2 71 59.5C81.3 87.8 66 63.3 48 48 29.6 33 0 0 0 0" fill="#ff7319"/></g><g transform="matrix(1.3333 0 0 -1.3333 0 2730.7) matrix(1.2 0 0 1.2 -140.4 -138.6)" clip-path="url(#am)"><path transform="translate(1313.7 1319.7)" d="m0 0s112.3 60.3 66.3 138.8c-40.6 69.3-67.6 72.5-279 93.2-211.3 20.7-218-36.7-256-15.3 30 26.3 128.5 47.6 236 38 72.4-6.5 220 1.2 290.5-66.9 58.5-56.5 56-114.5 16.5-156" fill="#f15a24"/><path transform="translate(1217 1305)" d="M0 0s139 62.5 122 174c-19.4 127.1-272.5 186-366 167.5-89.8-17.8-132-33-191.3-40.8-57.6-7.6-76.7-17-110.7-5.4 78.7 29.7 104.7 18 203.3 46 98.7 28 220 53.4 375.4-32C188 224 172 90.2 60 0" fill="#f7931e"/><path transform="translate(1182.3 1306)" d="M0 0s-3 37-10 53 16 27 22.7 5.7C19.3 37.3 38-7 38-7" fill="#ee5900"/><path transform="translate(1175.5 1389)" d="m0 0s-0.5-7.5-7 1.5-7 20 2 19.5 5-21 5-21m17.8 0.3c-1.3 22-5.6 27-14.6 35.4-9 8.3-30 5.3-35-10.4-5-15.6 8.6-15.6 16.6-38.3s20-17 20-17c17.4 5.7 14.4 8.3 13 30.3" fill="#603813"/><path transform="translate(1213.7 1305)" d="M0 0s15.3 77.3 24.3 89.7C33.3 102 43 93.3 39 59S30.3-8 30.3-8" fill="#db5900"/><path transform="translate(1256 1414.5)" d="M0 0c-3.5-8-11.5-4.5-9.5 9.5s8.2 7.3 8.2 7.3S3.5 8 0 0m-2 32.2c-11 1.3-21.8-5.9-21.3-33.4.3-19.6-1.7-29.3 9.3-32.6 0 0 19.3-7.4 28.3 22.6S9 30.8-2 32.2" fill="#603813"/><path transform="translate(861.6 1108)" d="M0 0c106-24 251-35.8 368.1 36.3 75 46 91.7 106.7 104.8 128.2 9.5 15.5 37.1 27.8 75.9 44.8 38 16.7 75.8 39.2 58.3 42.7a78 78 0 0 1-34-6c-26.4-10-62.7-30.5-62.7-30.5s59.2 30.1 77.7 45.1 35.7 37 24.3 37.7c-9.5.6-16.5-3.5-40-24S531 241 438 209.5 253.4 217 167.4 218s-146-34.4-146-34.4z" fill="#ff6300"/><path transform="translate(908.7 1259)" d="M0 0c2 19.3 37.3 32 94.7 35.3 57.3 3.4 117-2.4 118-14C214 6.7 185 9.3 158.3 12c-26.6 2.7-65-1.3-89.6-8C46.4-2-2.1-20.3 0 0" fill="#ff9100"/></g><g transform="matrix(1.3333 0 0 -1.3333 0 2730.7) matrix(1.2 0 0 1.2 -140.4 -138.6)" clip-path="url(#al)"><path transform="translate(1071.3 1146.2)" d="M0 0s109.9 43 166 40.7c56-2.3 75.8-14 48.9-61.6C187.9-68.5 146.7-45.3 78-56 9.3-66.8-8.2-71.7 0 0" fill="#ff4600"/><g clip-path="url(#ak)" opacity=".8"><path transform="translate(1108 1110.4)" d="M0 0s-5.9 8.7-2.4 20C36.5 34.7 97 47 119.1 46.2c22-1 11.9 2.1 15-13.7 3.3-15.8 12.9-17.7-29-20C63 10.3 0 0 0 0" fill="#ff7319"/></g><path transform="translate(1263.7 1144.8)" d="M0 0s8.4 36 70.7 57.7c62.2 21.7 88.8 31.2 95-12.4 6.3-43.6 4.9-59.6-73-81.7C15-58.6 7-60.5 0 0" fill="#ff4600"/><g clip-path="url(#aj)" opacity=".8"><path transform="translate(1290.7 1140.8)" d="m0 0s3.5 11.4 39.8 24.7c71.3 26 59.4 20.3 68.2 6.8s5.6-12.8-32.7-26.2c-40-14-71.6-28.6-75.3-5.3" fill="#ff7319"/></g><path transform="translate(1417.2 1193.8)" d="M0 0s16.4 30.8 61.5 47.3c45 16.5 49.8 7.6 48.8-32.5s.5-30.4-49.9-48C10.1-51 3.4-46.4 0 0" fill="#ff4600"/><g clip-path="url(#ai)" opacity=".8"><path transform="translate(1446 1184.3)" d="M0 0s-6.8 10.3 15.2 23.4c31 18.4 39.4 21.2 38.2 2.2-1.6-26.7 3-18-29-28.9C-1-11.8 0 0 0 0" fill="#ff7319"/></g><path transform="translate(1523.7 1244.7)" d="M0 0s34.7 41 79 67.2c44.4 26.2 93.1 21.2 93.1 21.2s-7.1-18.1-39.5-40.8c-15.3-10.7-21-36.4-42.2-52.2C28-51-8.3-35.6-8.3-35.6Z" fill="#ff4600"/><g clip-path="url(#ah)" opacity=".8"><path transform="translate(1552.3 1247.7)" d="M0 0s14.7 17 37.3 34.7c22.7 17.6 57 34.6 58.4 28C97 56 71.3 53 67 39.3c-4.3-13.6-7-22-30-34.3C15.2-6.7-12.7-18.3 0 0" fill="#ff7319"/></g><path transform="translate(1524.5 1185.6)" d="M0 0s51.6-26.4 88.3-27.5c36.7-1 61.5-9.9 99 10.8-6 8.5-23.2 9-34.9 11C104.2 3 90.6 39.6 8.2 21.7-14.9 16.6 0 0 0 0" fill="#ff4600"/><g clip-path="url(#ag)" opacity=".8"><path transform="translate(1551 1188.7)" d="M0 0s21.6-12.3 43.2-14.2a2244 2244 0 0 1 69.4-3.7S87.8-11 78.1-4.6a103.2 103.2 0 0 1-45 11.9c-9.7-1-30.1 0-30.1 0Z" fill="#ff7319"/></g><path transform="translate(1757.5 1295)" d="M0 0c-1.5 6.3-2.5 19.8-12.2 17.8C-26 14.9-77 5-98.7 0c-12.9-2.9-12.4-6.5-8.6-11.7 7.4-10.1 28-26.9 33.6-32.6 8.5-8.6 6.4-8.6 2-18.9-6.3-15.3-16.2-37.2-18.5-44.7-1-3 .5-11.2 14.2-9.2a4673 4673 0 0 1 85.5 15.6c10.3 2 11.7 5.3 9.2 17.6C16-69.6 18-67.2 7.3-69.4c-9.6-2-8.5-.2-7-8.6 1-5.8 0-6.6-21.2-10-41.2-6.6-42.8-9.7-36.1 7.5 14.8 38.3 17.4 31.4-4.9 53C-76.8-13-77.2-15.9-38.3-8-17-3.7-18.1-3-16.6-9c2-8.7 3.2-7.2 11-5.5C2.4-12.7 2.6-11.2 0 0" fill="#662d91"/><path transform="translate(861.6 1108)" d="M0 0s144 10 197.5.3 132-28.5 107.8-47.4c-24.1-18.8-20-33.7-130.8-17-110.8 16.8-197 22-196 41.4S0 0 0 0" fill="#ff4600"/><g clip-path="url(#af)" opacity=".8"><path transform="translate(909.7 1086.8)" d="M0 0c2 7.8 36.4 14.6 114.2 5C192-4.3 238.7-15.5 215.5-23.4c-23.2-8-71.5 3.8-128.3 8.8C30.2-9.7-3.3-12.4 0 0" fill="#ff7319"/></g><path transform="translate(1158.8 1060.9)" d="M0 0s-33.8-2 1.8-49.4c35.5-47.5 89.5-129.2 102-125.4 12.4 3.8 27 24 11.8 57.2A585.2 585.2 0 0 1 50.2-13.3C33.3 6.5 0 0 0 0" fill="#ff4600"/><g clip-path="url(#ae)" opacity=".8"><path transform="translate(1189.7 1036.9)" d="M0 0c-11.3 2.5-31.3 7.3-11.2-15C8.8-37.4 65-128.8 72.2-118.6c7.2 10.2-20 38.4-36.1 68C19.9-20.7 0 0 0 0" fill="#ff7319"/></g><path transform="translate(1275.7 897.7)" d="M0 0s15.3 11.3 34-46.7 16-164-2-166.6c-18-2.7-29.3.6-36 58-6.7 57.3-27.3 144-19.3 150S0 0 0 0" fill="#ff4600"/><g clip-path="url(#ad)" opacity=".8"><path transform="translate(1272.5 864)" d="M0 0c6.6 7.7 22-1.5 29-46s6.5-114-2-110S11.5-75 9.5-53-6.5-7.5 0 0" fill="#ff7319"/></g><path transform="translate(1115.7 495)" d="M0 0s127.3 76 158.7 116c31.3 40 56 71.3 28 78-28 6.7-42-18-82-74.7C64.7 62.7 0 0 0 0" fill="#ff4600"/><g clip-path="url(#ac)" opacity=".8"><path transform="translate(1212 577)" d="M0 0s52 36.5 68 65-.5 34-18 3.5S0 0 0 0" fill="#ff7319"/></g><path transform="translate(834 1064.5)" d="M0 0s-7 15.5 66 11.5 179.5-3.5 175-45S181.5-58 116.5-49-49-38 0 0" fill="#ff4600"/><g clip-path="url(#ab)" opacity=".8"><path transform="translate(1041.4 1032)" d="m0 0c1.6 7 12.4 11.9-39.7 18.3-52.2 6.5-144.5 15.1-146.3 0.5s13.4-4.4 86.5-14.2c73.2-9.6 96-20 99.5-4.6" fill="#ff7319"/></g><path transform="translate(1061.3 1020.7)" d="M0 0s31 2.3 41-45.3C51-93 43.3-116 42.3-141c-1-25-7.3-27.3-24-27-16.6.3-20.3 6-29.3 57.7C-20-58.7-35.3 9.3 0 0" fill="#ff4600"/><g clip-path="url(#aa)" opacity=".8"><path transform="translate(1065.5 996.5)" d="M0 0s9.6 8.8 15.8-24.5c6.3-33.3 11.4-98.2.4-95.7s-7.3 5-15 56.7C-6.6-11.7-4.8-2 0 0" fill="#ff7319"/></g><path transform="translate(1084.3 857.3)" d="m0 0s19.3 4.7 14-39-21.7-75.7-31.7-106.7-33.6-71.3-50.6-61c-17 10.4-23.4 13 1.3 63s14.3 83 33.7 112.4c19.3 29.3 23 32.6 33.3 31.3" fill="#ff4600"/><g clip-path="url(#z)" opacity=".8"><path transform="translate(1071.3 819.8)" d="M0 0c6.3 6.8 14.3 20.8 10-3-4.3-23.8-24.5-73.5-27.8-90.3-3.2-16.7-25.7-57.2-28.7-45.5-3 11.8 28.5 64.6 31 94.3C-13-14.7 0 0 0 0" fill="#ff7319"/></g><path transform="translate(811.3 530.7)" d="M0 0s35-4.3 90.3 17.7c55.4 22 106.2 38.2 125.4 97.6 7 21.7-22 28.7-35.4 8-14.5-22.6-61.3-56.6-97.3-75C47 30 22.3 9 0 0" fill="#ff4600"/><g clip-path="url(#y)" opacity=".8"><path transform="translate(897.8 563)" d="M0 0c-20.5-7.7 79.2 42 98.8 72.5 9.8 15.1 18.4 1-4.5-20.8C71.7 30.4 20.8 7.9 0 0" fill="#ff7319"/></g><path transform="translate(828 1049)" d="M0 0s30.3-18 51-30.7c20.7-12.6 30-23 29.7-33-.4-10-7.7-14.3-30.7-7-23 7.4-59 20.7-67 33C-25-25.3 0 0 0 0" fill="#ff4600"/><g clip-path="url(#x)" opacity=".8"><path transform="translate(831.5 1029.5)" d="M0 0s55.5-25 52-33S-21-14.5 0 0" fill="#ff7319"/></g><path transform="translate(963.3 905.7)" d="M0 0s-19.7 71.7-44.3 84.7C-69 97.7-79 83.3-63 66.7-47 50-16 29.3 0 0" fill="#ff4600"/><g clip-path="url(#w)" opacity=".8"><path transform="translate(906 984.5)" d="M0 0s9.2 2.8 19.5-11.3c10.8-14.7 18-28.2 18-28.2S-7.5-5.5 0 0" fill="#ff7319"/></g></g><g transform="matrix(1.3333 0 0 -1.3333 0 2730.7) matrix(1.2 0 0 1.2 -140.4 -138.6)" clip-path="url(#v)"><path transform="translate(844.1 1205.4)" d="m0 0c-4.5-81-48-123-48-123-47.9 150.4-222.1 180.6-346.1 80.6s-112.4-298.7 116-320c214-20 211 274 7 251-207.4-23.4-68-206 25-146s-26 116-61 80 16-49 35-41-8 19-9 29 59 3 39-27-74-35-93 10 64 72 121 53 47.6-143.6-49.9-149.6-153 31.6-154.5 126c-1.3 91.6 181.5 169.5 273 88.5s115.5-220.5 4.5-313.5-336-37.5-390 126 33.2 293.7 147 367.5c116 75.1 370.5 25.5 370.5 25.5s18-36 13.5-117m-277.5 276c-436.2-80.7-420-659.5-165-787.5 232.8-116.8 446.9-15.3 552 102.6-9 25.3-16 51.2-23.6 77.5-2.6 9.3-4.7 18.7-6.4 28-53.2-51.5-96-61-96-61s-4.1 111-17.6 136.5 64.1 117 74.6 193.4c11.4 83.3-9 157.5-9 157.5s99 57 151.5 48c36.1-6.2 49.5-14.5 54.3-19.1 8.9 6.4 18 12.5 27.5 18.6-67.8 91-223.1 164.6-542.3 105.5" fill="#2e3192"/></g></svg>

